<svg width="80" height="120" viewBox="0 0 80 120" fill="none" xmlns="http://www.w3.org/2000/svg">
  <!-- Large heart -->
  <path d="M40 80C40 80 15 65 15 47.5C15 40 21 35 27.5 35C34 35 40 42 40 42C40 42 46 35 52.5 35C59 35 65 40 65 47.5C65 65 40 80 40 80Z" fill="#FADADD" stroke="#EA7F9D" stroke-width="2" stroke-linecap="round" stroke-linejoin="round"/>
  
  <!-- Medium heart top left -->
  <path d="M20 30C20 30 5 20 5 10C5 5 8 2 12 2C16 2 20 6 20 6C20 6 24 2 28 2C32 2 35 5 35 10C35 20 20 30 20 30Z" fill="#E3D7FF" stroke="#9D7FEA" stroke-width="1.5" stroke-linecap="round" stroke-linejoin="round"/>
  
  <!-- Medium heart top right -->
  <path d="M60 30C60 30 45 20 45 10C45 5 48 2 52 2C56 2 60 6 60 6C60 6 64 2 68 2C72 2 75 5 75 10C75 20 60 30 60 30Z" fill="#C6F7E2" stroke="#7FEAB5" stroke-width="1.5" stroke-linecap="round" stroke-linejoin="round"/>
  
  <!-- Small heart bottom left -->
  <path d="M20 110C20 110 10 103 10 95C10 91 13 89 16 89C19 89 20 93 20 93C20 93 21 89 24 89C27 89 30 91 30 95C30 103 20 110 20 110Z" fill="#FFD6C0" stroke="#EA7F9D" stroke-width="1" stroke-linecap="round" stroke-linejoin="round"/>
  
  <!-- Small heart bottom right -->
  <path d="M60 110C60 110 50 103 50 95C50 91 53 89 56 89C59 89 60 93 60 93C60 93 61 89 64 89C67 89 70 91 70 95C70 103 60 110 60 110Z" fill="#B3E5FC" stroke="#5EB3E4" stroke-width="1" stroke-linecap="round" stroke-linejoin="round"/>
  
  <!-- Tiny heart top center -->
  <path d="M40 15C40 15 35 10 35 7C35 5 36 4 38 4C39 4 40 6 40 6C40 6 41 4 42 4C44 4 45 5 45 7C45 10 40 15 40 15Z" fill="#FADADD" stroke="#EA7F9D" stroke-width="0.5" stroke-linecap="round" stroke-linejoin="round"/>
  
  <!-- Tiny heart bottom center -->
  <path d="M40 95C40 95 35 90 35 87C35 85 36 84 38 84C39 84 40 86 40 86C40 86 41 84 42 84C44 84 45 85 45 87C45 90 40 95 40 95Z" fill="#E3D7FF" stroke="#9D7FEA" stroke-width="0.5" stroke-linecap="round" stroke-linejoin="round"/>
</svg> 