<svg width="60" height="60" viewBox="0 0 60 60" fill="none" xmlns="http://www.w3.org/2000/svg">
  <!-- Main heart -->
  <path d="M30 50C30 50 5 35 5 17.5C5 10 11 5 17.5 5C24 5 30 12 30 12C30 12 36 5 42.5 5C49 5 55 10 55 17.5C55 35 30 50 30 50Z" fill="#FADADD" stroke="#EA7F9D" stroke-width="2" stroke-linecap="round" stroke-linejoin="round"/>
  
  <!-- Shine effect -->
  <path d="M15 15C12 18 12 22 13 25" stroke="white" stroke-width="2" stroke-linecap="round"/>
  
  <!-- Small hearts -->
  <path d="M15 42C15 42 9 38 9 33.5C9 31 11 30 13 30C15 30 15 32 15 32C15 32 15 30 17 30C19 30 21 31 21 33.5C21 38 15 42 15 42Z" fill="#FFE9EF" stroke="#EA7F9D" stroke-width="1" stroke-linecap="round" stroke-linejoin="round"/>
  
  <path d="M45 42C45 42 39 38 39 33.5C39 31 41 30 43 30C45 30 45 32 45 32C45 32 45 30 47 30C49 30 51 31 51 33.5C51 38 45 42 45 42Z" fill="#FFE9EF" stroke="#EA7F9D" stroke-width="1" stroke-linecap="round" stroke-linejoin="round"/>
</svg> 