<svg width="30" height="30" viewBox="0 0 30 30" fill="none" xmlns="http://www.w3.org/2000/svg">
  <!-- Acrylic nail extensions -->
  <rect x="2" y="10" width="4" height="15" rx="2" fill="#E3D7FF" stroke="#9D7FEA" stroke-width="0.5"/>
  <rect x="7" y="8" width="4" height="17" rx="2" fill="#E3D7FF" stroke="#9D7FEA" stroke-width="0.5"/>
  <rect x="12" y="6" width="4" height="19" rx="2" fill="#E3D7FF" stroke="#9D7FEA" stroke-width="0.5"/>
  <rect x="17" y="8" width="4" height="17" rx="2" fill="#E3D7FF" stroke="#9D7FEA" stroke-width="0.5"/>
  <rect x="22" y="10" width="4" height="15" rx="2" fill="#E3D7FF" stroke="#9D7FEA" stroke-width="0.5"/>
  
  <!-- Fingertips under the extensions -->
  <rect x="2" y="20" width="4" height="5" rx="2" fill="#FFE9EF" stroke="#EA7F9D" stroke-width="0.5"/>
  <rect x="7" y="20" width="4" height="5" rx="2" fill="#FFE9EF" stroke="#EA7F9D" stroke-width="0.5"/>
  <rect x="12" y="20" width="4" height="5" rx="2" fill="#FFE9EF" stroke="#EA7F9D" stroke-width="0.5"/>
  <rect x="17" y="20" width="4" height="5" rx="2" fill="#FFE9EF" stroke="#EA7F9D" stroke-width="0.5"/>
  <rect x="22" y="20" width="4" height="5" rx="2" fill="#FFE9EF" stroke="#EA7F9D" stroke-width="0.5"/>
  
  <!-- Acrylic powder container -->
  <path d="M13 3.5C13 2.67157 13.6716 2 14.5 2H18.5C19.3284 2 20 2.67157 20 3.5V5.5C20 5.5 20 7 16.5 7C13 7 13 5.5 13 5.5V3.5Z" fill="#FFD6C0" stroke="#EA7F9D" stroke-width="0.5"/>
  <path d="M13.5 4H19.5" stroke="#EA7F9D" stroke-width="0.5"/>
  
  <!-- Brush -->
  <rect x="23" y="2" width="1" height="6" rx="0.5" fill="#9D7FEA" stroke="#9D7FEA" stroke-width="0.2"/>
  <path d="M23.5 2C23.5 2 25.5 2 26 3C26.5 4 24 6 24 6" stroke="#9D7FEA" stroke-width="0.5"/>
</svg> 