<svg width="30" height="30" viewBox="0 0 30 30" fill="none" xmlns="http://www.w3.org/2000/svg">
  <!-- Hand shape -->
  <path d="M5 23C5 23 5 15 7.5 12.5C10 10 12.5 10 12.5 10V2.5C12.5 2.5 15 2.5 15 5V12.5H17.5V7.5C17.5 7.5 20 7.5 20 10V15H22.5V12.5C22.5 12.5 25 12.5 25 15V22.5C25 26 22.5 27.5 20 27.5H7.5C6 27.5 5 25 5 23Z" fill="#FFE9EF" stroke="#EA7F9D" stroke-width="1" stroke-linejoin="round"/>
  
  <!-- Fingernails with gel shine -->
  <rect x="11" y="3.5" width="3" height="5" rx="1.5" fill="#FADADD" stroke="#EA7F9D" stroke-width="0.5"/>
  <rect x="16" y="8.5" width="3" height="5" rx="1.5" fill="#FADADD" stroke="#EA7F9D" stroke-width="0.5"/>
  <rect x="21" y="13.5" width="3" height="5" rx="1.5" fill="#FADADD" stroke="#EA7F9D" stroke-width="0.5"/>
  
  <!-- Gel shine effect -->
  <rect x="11.5" y="4" width="1" height="4" rx="0.5" fill="white" fill-opacity="0.7"/>
  <rect x="16.5" y="9" width="1" height="4" rx="0.5" fill="white" fill-opacity="0.7"/>
  <rect x="21.5" y="14" width="1" height="4" rx="0.5" fill="white" fill-opacity="0.7"/>
  
  <!-- UV Lamp indicator -->
  <path d="M3 9C3 7.89543 3.89543 7 5 7H9C10.1046 7 11 7.89543 11 9V11C11 12.1046 10.1046 13 9 13H5C3.89543 13 3 12.1046 3 11V9Z" fill="#E3D7FF" stroke="#9D7FEA" stroke-width="0.5"/>
  <path d="M5 10L9 10" stroke="#9D7FEA" stroke-width="0.5" stroke-linecap="round"/>
  <path d="M4 8.5L4 11.5" stroke="#9D7FEA" stroke-width="0.5" stroke-linecap="round"/>
  <path d="M6 8.5L6 11.5" stroke="#9D7FEA" stroke-width="0.5" stroke-linecap="round"/>
  <path d="M8 8.5L8 11.5" stroke="#9D7FEA" stroke-width="0.5" stroke-linecap="round"/>
  <path d="M10 8.5L10 11.5" stroke="#9D7FEA" stroke-width="0.5" stroke-linecap="round"/>
</svg> 