<svg width="30" height="30" viewBox="0 0 30 30" fill="none" xmlns="http://www.w3.org/2000/svg">
  <!-- Fingernail with art -->
  <rect x="3" y="5" width="16" height="22" rx="8" fill="#FFE9EF" stroke="#EA7F9D" stroke-width="0.5"/>
  
  <!-- Nail art elements -->
  <circle cx="8" cy="12" r="2" fill="#FADADD" stroke="#EA7F9D" stroke-width="0.3"/>
  <path d="M14 12C14 12 12 10 14 8C16 6 18 8 18 8" stroke="#B3E5FC" stroke-width="1.5" stroke-linecap="round"/>
  <circle cx="11" cy="20" r="1.5" fill="#C6F7E2" stroke="#7FEAB5" stroke-width="0.3"/>
  <path d="M6 16L8 18L6 20" stroke="#E3D7FF" stroke-width="1" stroke-linecap="round" stroke-linejoin="round"/>
  <circle cx="9" cy="10" r="0.5" fill="white"/>
  <circle cx="12" cy="15" r="0.5" fill="white"/>
  <circle cx="7" cy="18" r="0.5" fill="white"/>
  <circle cx="15" cy="17" r="0.5" fill="white"/>
  
  <!-- Nail art tools -->
  <rect x="22" y="5" width="1.5" height="8" rx="0.75" fill="#9D7FEA" stroke="#9D7FEA" stroke-width="0.2"/>
  <circle cx="22.75" cy="3.5" r="1.5" fill="#E3D7FF" stroke="#9D7FEA" stroke-width="0.3"/>
  
  <rect x="25" y="18" width="1.5" height="8" rx="0.75" fill="#EA7F9D" stroke="#EA7F9D" stroke-width="0.2"/>
  <path d="M25.75 15.5C25.75 15.5 24 15.5 24 17C24 18.5 27.5 18.5 27.5 17C27.5 15.5 25.75 15.5 25.75 15.5Z" fill="#FADADD" stroke="#EA7F9D" stroke-width="0.3"/>
  
  <!-- Palette -->
  <path d="M20.5 10C20.5 10 19 13 20.5 16C22 19 25 20 27 18.5C27.5 17 27 14 25.5 12C24 10 20.5 10 20.5 10Z" fill="#FFD6C0" stroke="#EA7F9D" stroke-width="0.5"/>
  <circle cx="22" cy="12" r="1" fill="#FADADD"/>
  <circle cx="24" cy="13" r="1" fill="#E3D7FF"/>
  <circle cx="22.5" cy="15" r="1" fill="#C6F7E2"/>
  <circle cx="25" cy="16" r="1" fill="#B3E5FC"/>
</svg> 