<svg width="30" height="30" viewBox="0 0 30 30" fill="none" xmlns="http://www.w3.org/2000/svg">
  <!-- Broken nail -->
  <path d="M7 5C7 5 5 8 5 12C5 16 5 23 5 23C5 23 5 25 8 25C11 25 12 23 12 23V12C12 8 10 5 10 5H7Z" fill="#FFE9EF" stroke="#EA7F9D" stroke-width="0.5"/>
  
  <!-- Break in nail -->
  <path d="M5 15L12 13" stroke="#EA7F9D" stroke-width="0.5" stroke-dasharray="1 0.5"/>
  
  <!-- Repairing nail -->
  <path d="M18 5C18 5 16 8 16 12C16 16 16 23 16 23C16 23 16 25 19 25C22 25 23 23 23 23V12C23 8 21 5 21 5H18Z" fill="#FFE9EF" stroke="#EA7F9D" stroke-width="0.5"/>
  
  <!-- Acrylic/repair material -->
  <path d="M16 15C16 15 17.5 14 19.5 14C21.5 14 23 15 23 15" fill="#E3D7FF" stroke="#9D7FEA" stroke-width="0.5"/>
  
  <!-- Repair tools -->
  <rect x="25" y="7" width="3" height="9" rx="1.5" fill="#C6F7E2" stroke="#7FEAB5" stroke-width="0.5"/>
  <line x1="26.5" y1="7" x2="26.5" y2="16" stroke="#7FEAB5" stroke-width="0.5"/>
  <circle cx="26.5" cy="19" r="3" fill="#C6F7E2" stroke="#7FEAB5" stroke-width="0.5"/>
  <path d="M26.5 17V21M24.5 19H28.5" stroke="#7FEAB5" stroke-width="0.5"/>
  
  <!-- Nail glue -->
  <rect x="2" y="7" width="3" height="6" rx="1" fill="#E3D7FF" stroke="#9D7FEA" stroke-width="0.5"/>
  <path d="M2.5 13L4.5 13" stroke="#9D7FEA" stroke-width="0.5"/>
  
  <!-- Glue drops -->
  <circle cx="3.5" cy="16" r="0.5" fill="#E3D7FF"/>
  <path d="M3.5 15.5V19.5" stroke="#9D7FEA" stroke-width="0.3" stroke-linecap="round"/>
  
  <!-- Band-Aid/wrap -->
  <rect x="14.5" y="12" width="10" height="4" rx="1" transform="rotate(-10 14.5 12)" fill="#FADADD" stroke="#EA7F9D" stroke-width="0.3"/>
  <path d="M16 13.5L23 12" stroke="#EA7F9D" stroke-width="0.3" stroke-dasharray="1 0.5"/>
  <path d="M16.5 15L23.5 13.5" stroke="#EA7F9D" stroke-width="0.3" stroke-dasharray="1 0.5"/>
</svg> 