<svg width="30" height="30" viewBox="0 0 30 30" fill="none" xmlns="http://www.w3.org/2000/svg">
  <!-- Foot shape -->
  <path d="M5 16C5 13 8 13 10 11C12 9 13 5 15 5C17 5 18 7 18 9C18 13 15 15 15 15L20 18C22 20 23 23 21 25C19 27 15 26 15 26C15 26 12.5 25 10 24C7.5 23 5 22 5 16Z" fill="#FFE9EF" stroke="#EA7F9D" stroke-width="0.5"/>
  
  <!-- Toenails -->
  <rect x="7.5" y="16" width="2.5" height="3.5" rx="1.25" fill="#FADADD" stroke="#EA7F9D" stroke-width="0.3"/>
  <rect x="11" y="17" width="2.5" height="3.5" rx="1.25" fill="#FADADD" stroke="#EA7F9D" stroke-width="0.3"/>
  <rect x="14.5" y="18" width="2.5" height="3.5" rx="1.25" fill="#FADADD" stroke="#EA7F9D" stroke-width="0.3"/>
  <rect x="18" y="19" width="2" height="3" rx="1" fill="#FADADD" stroke="#EA7F9D" stroke-width="0.3"/>
  <rect x="20.5" y="19.5" width="1.5" height="2.5" rx="0.75" fill="#FADADD" stroke="#EA7F9D" stroke-width="0.3"/>
  
  <!-- Foot spa bowl -->
  <path d="M3 14C3 11.2386 5.23858 9 8 9H22C24.7614 9 27 11.2386 27 14V20C27 22.7614 24.7614 25 22 25H8C5.23858 25 3 22.7614 3 20V14Z" fill="#C6F7E2" stroke="#7FEAB5" stroke-width="0.5"/>
  
  <!-- Water in bowl -->
  <path d="M3 17H27V20C27 22.7614 24.7614 25 22 25H8C5.23858 25 3 22.7614 3 20V17Z" fill="#B3E5FC" stroke="#5EB3E4" stroke-width="0.3"/>
  
  <!-- Bubbles -->
  <circle cx="7" cy="19" r="0.8" fill="white" fill-opacity="0.7"/>
  <circle cx="9" cy="21" r="0.6" fill="white" fill-opacity="0.7"/>
  <circle cx="12" cy="20" r="1" fill="white" fill-opacity="0.7"/>
  <circle cx="16" cy="22" r="0.7" fill="white" fill-opacity="0.7"/>
  <circle cx="20" cy="21" r="0.9" fill="white" fill-opacity="0.7"/>
  <circle cx="23" cy="19" r="0.6" fill="white" fill-opacity="0.7"/>
  
  <!-- Scrub/pumice tool -->
  <rect x="23" y="3" width="4" height="6" rx="1" fill="#E3D7FF" stroke="#9D7FEA" stroke-width="0.3"/>
  <rect x="23.5" y="3.5" width="3" height="2.5" rx="0.5" fill="#9D7FEA" stroke="#9D7FEA" stroke-width="0.2"/>
  <path d="M24 6.5L26.5 6.5" stroke="#9D7FEA" stroke-width="0.3" stroke-linecap="round"/>
  <path d="M24 7.5L26.5 7.5" stroke="#9D7FEA" stroke-width="0.3" stroke-linecap="round"/>
</svg> 