<svg width="100" height="100" viewBox="0 0 100 100" fill="none" xmlns="http://www.w3.org/2000/svg">
  <g opacity="0.7">
    <!-- Nail polish bottles -->
    <g transform="translate(10, 10)">
      <rect x="2" y="0" width="6" height="3" rx="1" fill="#E3D7FF"/>
      <rect x="3" y="1" width="4" height="5" rx="1" fill="#9D7FEA"/>
      <rect x="0" y="3" width="10" height="15" rx="2" fill="#FADADD"/>
    </g>
    
    <g transform="translate(70, 60)">
      <rect x="2" y="0" width="6" height="3" rx="1" fill="#FFD6C0"/>
      <rect x="3" y="1" width="4" height="5" rx="1" fill="#EA7F9D"/>
      <rect x="0" y="3" width="10" height="15" rx="2" fill="#C6F7E2"/>
    </g>
    
    <!-- Hearts -->
    <path d="M40 25C40 25 35 20 35 15C35 12 37 10 40 10C43 10 45 12 45 15C45 20 40 25 40 25Z" fill="#FADADD" stroke="#FADADD" stroke-width="0.5"/>
    
    <path d="M80 85C80 85 75 80 75 75C75 72 77 70 80 70C83 70 85 72 85 75C85 80 80 85 80 85Z" fill="#E3D7FF" stroke="#E3D7FF" stroke-width="0.5"/>
    
    <!-- Nail files -->
    <rect x="50" y="40" width="20" height="5" rx="1" transform="rotate(-45 50 40)" fill="#FFE9EF" stroke="#EA7F9D" stroke-width="0.5"/>
    
    <rect x="15" y="75" width="20" height="5" rx="1" transform="rotate(-45 15 75)" fill="#C6F7E2" stroke="#7FEAB5" stroke-width="0.5"/>
    
    <!-- Sparkles -->
    <path d="M60 10L58 15L55 10L58 5L60 10Z" fill="#B3E5FC"/>
    <path d="M55 10L60 12L55 14L50 12L55 10Z" fill="#B3E5FC"/>
    
    <path d="M20 50L18 55L15 50L18 45L20 50Z" fill="#FFD6C0"/>
    <path d="M15 50L20 52L15 54L10 52L15 50Z" fill="#FFD6C0"/>
    
    <!-- Nail shapes -->
    <rect x="85" y="30" width="8" height="12" rx="4" fill="#E3D7FF" stroke="#9D7FEA" stroke-width="0.5"/>
    
    <rect x="35" y="85" width="8" height="12" rx="4" fill="#B3E5FC" stroke="#5EB3E4" stroke-width="0.5"/>
    
    <!-- Cuticle clippers -->
    <circle cx="90" cy="90" r="3" fill="none" stroke="#EA7F9D" stroke-width="0.5"/>
    <rect x="86" y="86" width="8" height="2" rx="1" fill="#EA7F9D" transform="rotate(-45 86 86)"/>
    
    <circle cx="25" cy="30" r="3" fill="none" stroke="#7FEAB5" stroke-width="0.5"/>
    <rect x="21" y="26" width="8" height="2" rx="1" fill="#7FEAB5" transform="rotate(-45 21 26)"/>
  </g>
</svg> 